# xmcd CD database file
# Copyright (C) 1993-1998 Ti Kan
# 
# Track frame offsets:
#     150
#     13875
#     27425
#     41290
#     53625
#     64200
#     77875
#     91985
#     105327
#     123042
#     133767
#     150470
#     162805
#     174820
#     184615
#     198065
# 
# Disc length: 2965 seconds
# 
# Revision: 1
# Processed by: cddbd v1.4b41PL1 Copyright (c) Steve Scherf et al.
# Submitted via: DiscPlay 4.0.4
# 
DISCID=b90b9310
DTITLE=Seldom Scene - The Best of The Seldom Scene Vol. 1
DYEAR=1900
DGENRE=
TTITLE0=City of New Orleans
TTITLE1=Sing Me Back Home
TTITLE2=Muddy Water
TTITLE3=Cannonball (Fire ONE)
TTITLE4=Hello Mary Lou
TTITLE5=Small Exception of Me
TTITLE6=Sweet Baby James
TTITLE7=Heaven
TTITLE8=With Body and Soul
TTITLE9=Paradise
TTITLE10=Darling Corey
TTITLE11=Cannonball (Fire TWO)
TTITLE12=Sweetest Gift
TTITLE13=Another Lonesome Day
TTITLE14=Little Georgia Rose
TTITLE15=Rider
EXTD=
EXTT0=
EXTT1=
EXTT2=
EXTT3=
EXTT4=
EXTT5=
EXTT6=
EXTT7=
EXTT8=
EXTT9=
EXTT10=
EXTT11=
EXTT12=
EXTT13=
EXTT14=
EXTT15=
PLAYORDER=
